<?xml version="1.0" standalone="no"?>
<!DOCTYPE svg PUBLIC "-//W3C//DTD SVG 20010904//EN"
 "http://www.w3.org/TR/2001/REC-SVG-20010904/DTD/svg10.dtd">
<svg version="1.0" xmlns="http://www.w3.org/2000/svg"
 width="1000.000000pt" height="1000.000000pt" viewBox="0 0 1000.000000 1000.000000"
 preserveAspectRatio="xMidYMid meet">
<metadata>
Created by potrace 1.14, written by Peter Selinger 2001-2017
</metadata>
<g transform="translate(0.000000,1000.000000) scale(0.100000,-0.100000)"
fill="#000000" stroke="none">
<path d="M0 5000 l0 -5000 5000 0 5000 0 0 5000 0 5000 -5000 0 -5000 0 0
-5000z m3151 4444 c347 -77 613 -409 819 -1023 137 -406 249 -969 298 -1491 7
-74 7 -75 37 -78 23 -2 44 8 87 41 134 104 366 242 521 310 194 85 371 137
588 174 151 25 483 25 598 -1 609 -133 1048 -637 1372 -1574 76 -220 167 -558
188 -699 27 -175 31 -203 41 -288 52 -467 68 -892 59 -1605 -7 -548 -17 -670
-79 -925 -96 -398 -300 -725 -585 -935 -80 -59 -193 -89 -366 -97 -142 -6
-184 3 -346 77 -314 145 -501 378 -569 710 -20 96 -30 461 -16 550 6 36 33
198 61 360 l50 295 3 284 3 283 55 46 c279 230 481 545 566 881 50 196 62 384
41 631 -2 21 4 27 38 37 144 47 238 151 292 324 21 66 23 280 4 354 -62 247
-153 408 -319 567 -83 79 -183 144 -267 173 -27 10 -93 20 -145 22 -117 6
-184 -11 -264 -68 -56 -40 -146 -153 -146 -183 0 -13 -21 -6 -97 33 -123 61
-236 101 -389 137 -112 27 -132 29 -349 29 -217 0 -237 -2 -349 -29 -484 -114
-853 -388 -1095 -811 -344 -602 -258 -1374 212 -1908 176 -200 453 -382 703
-464 61 -20 84 -32 84 -44 0 -15 -21 -141 -51 -309 -6 -30 -14 -80 -19 -110
-5 -30 -13 -80 -19 -110 -12 -70 -19 -110 -31 -182 -20 -120 -30 -180 -40
-235 -5 -32 -23 -143 -40 -248 -17 -104 -35 -215 -40 -245 -10 -58 -22 -135
-41 -260 -6 -41 -15 -97 -20 -123 -5 -26 -9 -59 -9 -73 0 -53 -125 -281 -231
-421 -113 -148 -256 -267 -383 -316 -83 -32 -188 -57 -241 -57 -56 0 -188 46
-314 109 -388 194 -600 516 -641 976 -17 182 -12 293 25 548 159 1120 220
1897 196 2496 -16 399 -35 635 -82 1019 -42 346 -165 1064 -229 1330 -5 23
-14 61 -20 85 -30 136 -44 194 -95 402 -31 127 -61 239 -66 251 -19 38 -2 410
24 524 53 231 88 321 178 455 129 193 313 316 594 398 68 20 168 20 256 1z"/>
</g>
</svg>
